<svg width="420" height="455" viewBox="0 0 420 455" fill="none" xmlns="http://www.w3.org/2000/svg">
<g filter="url(#filter0_f_29_285)">
<path fill-rule="evenodd" clip-rule="evenodd" d="M205.519 233H138.1L107.258 331.638H141.485L112.991 433L207.496 309.565L157.177 309.565L205.519 233Z" fill="url(#paint0_linear_29_285)"/>
</g>
<g style="mix-blend-mode:color-burn" opacity="0.5" filter="url(#filter1_f_29_285)">
<path fill-rule="evenodd" clip-rule="evenodd" d="M248.269 346.547C245.108 352.652 238.7 356.828 231.31 356.828C220.785 356.828 212.253 348.359 212.253 337.911C212.253 336.414 212.421 334.9 212.742 333.363C211.208 336.999 210.347 340.468 210.347 343.855C210.347 354.302 218.879 362.771 229.404 362.771C239.008 362.771 246.952 355.719 248.269 346.547Z" fill="url(#paint1_radial_29_285)" fill-opacity="0.3"/>
</g>
<path opacity="0.5" d="M248.27 343.761C248.27 354.209 239.738 362.678 229.214 362.678C218.689 362.678 210.157 354.209 210.157 343.761C210.157 333.313 218.351 322.071 229.214 307.611C238.361 321.675 248.27 333.313 248.27 343.761Z" fill="url(#paint2_radial_29_285)"/>
<g style="mix-blend-mode:screen" opacity="0.3">
<ellipse cx="234.073" cy="328.212" rx="19.5332" ry="19.8083" fill="url(#paint3_radial_29_285)"/>
</g>
<g style="mix-blend-mode:screen" opacity="0.3">
<ellipse cx="223.02" cy="349.802" rx="19.5332" ry="19.8083" fill="url(#paint4_radial_29_285)"/>
</g>
<g style="mix-blend-mode:color-burn" opacity="0.5" filter="url(#filter2_f_29_285)">
<path fill-rule="evenodd" clip-rule="evenodd" d="M340.488 358.432C337.327 364.832 330.92 369.21 323.529 369.21C313.004 369.21 304.472 360.331 304.472 349.378C304.472 347.807 304.641 346.22 304.961 344.608C303.428 348.42 302.567 352.058 302.567 355.608C302.567 366.561 311.099 375.44 321.623 375.44C331.227 375.44 339.171 368.047 340.488 358.432Z" fill="url(#paint5_radial_29_285)" fill-opacity="0.3"/>
</g>
<path opacity="0.5" d="M340.49 355.51C340.49 366.463 331.958 375.342 321.433 375.342C310.908 375.342 302.376 366.463 302.376 355.51C302.376 344.557 310.571 332.771 321.433 317.611C330.58 332.355 340.49 344.557 340.49 355.51Z" fill="url(#paint6_radial_29_285)"/>
<g style="mix-blend-mode:screen" opacity="0.3">
<ellipse cx="326.292" cy="339.208" rx="19.5332" ry="20.7668" fill="url(#paint7_radial_29_285)"/>
</g>
<g style="mix-blend-mode:screen" opacity="0.3">
<ellipse cx="315.24" cy="361.844" rx="19.5332" ry="20.7668" fill="url(#paint8_radial_29_285)"/>
</g>
<g style="mix-blend-mode:color-burn" opacity="0.5" filter="url(#filter3_f_29_285)">
<path fill-rule="evenodd" clip-rule="evenodd" d="M298.792 424.853C294.683 432.73 286.352 438.118 276.745 438.118C263.063 438.118 251.971 427.19 251.971 413.709C251.971 411.776 252.19 409.822 252.607 407.838C250.613 412.53 249.494 417.007 249.494 421.377C249.494 434.858 260.585 445.786 274.267 445.786C286.752 445.786 297.08 436.687 298.792 424.853Z" fill="url(#paint9_radial_29_285)" fill-opacity="0.3"/>
</g>
<path opacity="0.5" d="M298.794 421.256C298.794 434.737 287.702 445.665 274.02 445.665C260.338 445.665 249.246 434.737 249.246 421.256C249.246 407.776 259.899 393.269 274.02 374.611C285.911 392.758 298.794 407.776 298.794 421.256Z" fill="url(#paint10_radial_29_285)"/>
<g style="mix-blend-mode:screen" opacity="0.3">
<ellipse cx="280.337" cy="401.192" rx="25.3932" ry="25.5591" fill="url(#paint11_radial_29_285)"/>
</g>
<g style="mix-blend-mode:screen" opacity="0.3">
<ellipse cx="265.968" cy="429.052" rx="25.3932" ry="25.5591" fill="url(#paint12_radial_29_285)"/>
</g>
<mask id="path-14-inside-1_29_285" fill="white">
<path fill-rule="evenodd" clip-rule="evenodd" d="M319.761 300.584L150.358 300.584C67.3176 300.584 0 233.296 0 150.292C0 67.288 67.3176 0 150.358 0C217.131 0 273.738 43.5071 293.354 103.708C301.767 101.417 310.621 100.195 319.761 100.195C375.122 100.195 420 145.053 420 200.389C420 255.725 375.122 300.584 319.761 300.584Z"/>
</mask>
<g filter="url(#filter4_i_29_285)">
<path fill-rule="evenodd" clip-rule="evenodd" d="M319.761 300.584L150.358 300.584C67.3176 300.584 0 233.296 0 150.292C0 67.288 67.3176 0 150.358 0C217.131 0 273.738 43.5071 293.354 103.708C301.767 101.417 310.621 100.195 319.761 100.195C375.122 100.195 420 145.053 420 200.389C420 255.725 375.122 300.584 319.761 300.584Z" fill="url(#paint13_linear_29_285)"/>
</g>
<path d="M150.358 300.584V299.584V300.584ZM319.761 300.584V301.584V300.584ZM293.354 103.708L292.403 104.018L292.698 104.923L293.616 104.673L293.354 103.708ZM150.358 301.584L319.761 301.584V299.584L150.358 299.584V301.584ZM-1 150.292C-1 233.849 66.7657 301.584 150.358 301.584V299.584C67.8694 299.584 1 232.743 1 150.292H-1ZM150.358 -1C66.7657 -1 -1 66.7353 -1 150.292H1C1 67.8407 67.8694 1 150.358 1V-1ZM294.304 103.398C274.558 42.7976 217.576 -1 150.358 -1V1C216.686 1 272.917 44.2166 292.403 104.018L294.304 103.398ZM293.616 104.673C301.945 102.405 310.711 101.195 319.761 101.195V99.1947C310.532 99.1947 301.589 100.429 293.091 102.743L293.616 104.673ZM319.761 101.195C374.57 101.195 419 145.606 419 200.389H421C421 144.501 375.673 99.1947 319.761 99.1947V101.195ZM419 200.389C419 255.173 374.57 299.584 319.761 299.584V301.584C375.673 301.584 421 256.278 421 200.389H419Z" fill="black" fill-opacity="0.05" mask="url(#path-14-inside-1_29_285)"/>
<defs>
<filter id="filter0_f_29_285" x="102.258" y="228" width="110.239" height="210" filterUnits="userSpaceOnUse" color-interpolation-filters="sRGB">
<feFlood flood-opacity="0" result="BackgroundImageFix"/>
<feBlend mode="normal" in="SourceGraphic" in2="BackgroundImageFix" result="shape"/>
<feGaussianBlur stdDeviation="2.5" result="effect1_foregroundBlur_29_285"/>
</filter>
<filter id="filter1_f_29_285" x="202.347" y="325.363" width="53.9219" height="45.4087" filterUnits="userSpaceOnUse" color-interpolation-filters="sRGB">
<feFlood flood-opacity="0" result="BackgroundImageFix"/>
<feBlend mode="normal" in="SourceGraphic" in2="BackgroundImageFix" result="shape"/>
<feGaussianBlur stdDeviation="4" result="effect1_foregroundBlur_29_285"/>
</filter>
<filter id="filter2_f_29_285" x="294.567" y="336.608" width="53.9219" height="46.8326" filterUnits="userSpaceOnUse" color-interpolation-filters="sRGB">
<feFlood flood-opacity="0" result="BackgroundImageFix"/>
<feBlend mode="normal" in="SourceGraphic" in2="BackgroundImageFix" result="shape"/>
<feGaussianBlur stdDeviation="4" result="effect1_foregroundBlur_29_285"/>
</filter>
<filter id="filter3_f_29_285" x="241.494" y="399.838" width="65.2983" height="53.948" filterUnits="userSpaceOnUse" color-interpolation-filters="sRGB">
<feFlood flood-opacity="0" result="BackgroundImageFix"/>
<feBlend mode="normal" in="SourceGraphic" in2="BackgroundImageFix" result="shape"/>
<feGaussianBlur stdDeviation="4" result="effect1_foregroundBlur_29_285"/>
</filter>
<filter id="filter4_i_29_285" x="0" y="0" width="420" height="349.231" filterUnits="userSpaceOnUse" color-interpolation-filters="sRGB">
<feFlood flood-opacity="0" result="BackgroundImageFix"/>
<feBlend mode="normal" in="SourceGraphic" in2="BackgroundImageFix" result="shape"/>
<feColorMatrix in="SourceAlpha" type="matrix" values="0 0 0 0 0 0 0 0 0 0 0 0 0 0 0 0 0 0 127 0" result="hardAlpha"/>
<feOffset dy="48.6468"/>
<feGaussianBlur stdDeviation="30"/>
<feComposite in2="hardAlpha" operator="arithmetic" k2="-1" k3="1"/>
<feColorMatrix type="matrix" values="0 0 0 0 1 0 0 0 0 1 0 0 0 0 1 0 0 0 1 0"/>
<feBlend mode="normal" in2="shape" result="effect1_innerShadow_29_285"/>
</filter>
<linearGradient id="paint0_linear_29_285" x1="157.377" y1="233" x2="157.377" y2="433" gradientUnits="userSpaceOnUse">
<stop stop-color="#FFE176"/>
<stop offset="0.47859" stop-color="#FEC255"/>
<stop offset="1" stop-color="#FEA031"/>
</linearGradient>
<radialGradient id="paint1_radial_29_285" cx="0" cy="0" r="1" gradientUnits="userSpaceOnUse" gradientTransform="translate(229.404 345.143) rotate(-38.7703) scale(32.264 23.4224)">
<stop stop-color="#3CC7F5"/>
<stop offset="0.0001" stop-color="#3CC7F5"/>
<stop offset="1" stop-color="#004DFF"/>
</radialGradient>
<radialGradient id="paint2_radial_29_285" cx="0" cy="0" r="1" gradientUnits="userSpaceOnUse" gradientTransform="translate(229.214 345.049) rotate(-38.7715) scale(32.2644 23.4229)">
<stop stop-color="#3CC7F5"/>
<stop offset="0.0001" stop-color="#3CC7F5"/>
<stop offset="1" stop-color="#004DFF"/>
</radialGradient>
<radialGradient id="paint3_radial_29_285" cx="0" cy="0" r="1" gradientUnits="userSpaceOnUse" gradientTransform="translate(234.073 328.212) rotate(57.0173) scale(27.6285 7.95282)">
<stop stop-color="white"/>
<stop offset="0.555017" stop-color="#BDDBF1" stop-opacity="0.25"/>
<stop offset="1" stop-color="#5686F5" stop-opacity="0"/>
</radialGradient>
<radialGradient id="paint4_radial_29_285" cx="0" cy="0" r="1" gradientUnits="userSpaceOnUse" gradientTransform="translate(221.972 349.802) rotate(50.8095) scale(15.0789 7.27856)">
<stop stop-color="white"/>
<stop offset="0.673987" stop-color="#BDDBF1" stop-opacity="0.25"/>
<stop offset="1" stop-color="#5686F5" stop-opacity="0"/>
</radialGradient>
<radialGradient id="paint5_radial_29_285" cx="0" cy="0" r="1" gradientUnits="userSpaceOnUse" gradientTransform="translate(321.623 356.958) rotate(-40.0996) scale(32.8855 24.0925)">
<stop stop-color="#3CC7F5"/>
<stop offset="0.0001" stop-color="#3CC7F5"/>
<stop offset="1" stop-color="#004DFF"/>
</radialGradient>
<radialGradient id="paint6_radial_29_285" cx="0" cy="0" r="1" gradientUnits="userSpaceOnUse" gradientTransform="translate(321.433 356.86) rotate(-40.0996) scale(32.8855 24.0925)">
<stop stop-color="#3CC7F5"/>
<stop offset="0.0001" stop-color="#3CC7F5"/>
<stop offset="1" stop-color="#004DFF"/>
</radialGradient>
<radialGradient id="paint7_radial_29_285" cx="0" cy="0" r="1" gradientUnits="userSpaceOnUse" gradientTransform="translate(326.292 339.208) rotate(58.2414) scale(28.5757 8.06127)">
<stop stop-color="white"/>
<stop offset="0.555017" stop-color="#BDDBF1" stop-opacity="0.25"/>
<stop offset="1" stop-color="#5686F5" stop-opacity="0"/>
</radialGradient>
<radialGradient id="paint8_radial_29_285" cx="0" cy="0" r="1" gradientUnits="userSpaceOnUse" gradientTransform="translate(314.191 361.844) rotate(52.1287) scale(15.5213 7.41325)">
<stop stop-color="white"/>
<stop offset="0.673987" stop-color="#BDDBF1" stop-opacity="0.25"/>
<stop offset="1" stop-color="#5686F5" stop-opacity="0"/>
</radialGradient>
<radialGradient id="paint9_radial_29_285" cx="0" cy="0" r="1" gradientUnits="userSpaceOnUse" gradientTransform="translate(274.268 423.038) rotate(-38.5624) scale(41.8215 30.3112)">
<stop stop-color="#3CC7F5"/>
<stop offset="0.0001" stop-color="#3CC7F5"/>
<stop offset="1" stop-color="#004DFF"/>
</radialGradient>
<radialGradient id="paint10_radial_29_285" cx="0" cy="0" r="1" gradientUnits="userSpaceOnUse" gradientTransform="translate(274.02 422.918) rotate(-38.5626) scale(41.8216 30.3114)">
<stop stop-color="#3CC7F5"/>
<stop offset="0.0001" stop-color="#3CC7F5"/>
<stop offset="1" stop-color="#004DFF"/>
</radialGradient>
<radialGradient id="paint11_radial_29_285" cx="0" cy="0" r="1" gradientUnits="userSpaceOnUse" gradientTransform="translate(280.337 401.192) rotate(56.8215) scale(35.7291 10.3157)">
<stop stop-color="white"/>
<stop offset="0.555017" stop-color="#BDDBF1" stop-opacity="0.25"/>
<stop offset="1" stop-color="#5686F5" stop-opacity="0"/>
</radialGradient>
<radialGradient id="paint12_radial_29_285" cx="0" cy="0" r="1" gradientUnits="userSpaceOnUse" gradientTransform="translate(264.606 429.052) rotate(50.5996) scale(19.5151 9.43382)">
<stop stop-color="white"/>
<stop offset="0.673987" stop-color="#BDDBF1" stop-opacity="0.25"/>
<stop offset="1" stop-color="#5686F5" stop-opacity="0"/>
</radialGradient>
<linearGradient id="paint13_linear_29_285" x1="29.4233" y1="-2.50863e-06" x2="420.025" y2="300.712" gradientUnits="userSpaceOnUse">
<stop stop-color="white"/>
<stop offset="1" stop-color="#C1C1C1"/>
</linearGradient>
</defs>
</svg>
